<?xml version="1.0" encoding="UTF-8" standalone="no"?>
<!DOCTYPE svg PUBLIC "-//W3C//DTD SVG 1.1//EN"
 "http://www.w3.org/Graphics/SVG/1.1/DTD/svg11.dtd">
<!-- Generated by graphviz version 2.43.0 (0)
 -->
<!-- Title: solution Pages: 1 -->
<svg width="256pt" height="356pt"
 viewBox="0.00 0.00 256.00 356.00" xmlns="http://www.w3.org/2000/svg" xmlns:xlink="http://www.w3.org/1999/xlink">
<g id="graph0" class="graph" transform="scale(1 1) rotate(0) translate(4 352)">
<title>solution</title>
<polygon fill="white" stroke="transparent" points="-4,4 -4,-352 252,-352 252,4 -4,4"/>
<!-- movies -->
<g id="node1" class="node">
<title>movies</title>
<polygon fill="none" stroke="black" points="248,-234 155,-234 155,-114 248,-114 248,-234"/>
<text text-anchor="start" x="181.78" y="-215.8" font-family="Times,serif" font-weight="bold" font-size="14.00">movies</text>
<text text-anchor="start" x="196.56" y="-195.8" font-family="Times,serif" font-weight="bold" font-size="14.00">id</text>
<text text-anchor="start" x="191.11" y="-181.8" font-family="Times,serif" font-size="14.00">title</text>
<text text-anchor="start" x="167.03" y="-167.8" font-family="Times,serif" font-size="14.00">release_year</text>
<text text-anchor="start" x="180.23" y="-153.8" font-family="Times,serif" font-size="14.00">runtime</text>
<text text-anchor="start" x="185.67" y="-139.8" font-family="Times,serif" font-size="14.00">rating</text>
<text text-anchor="start" x="175.94" y="-125.8" font-family="Times,serif" font-style="italic" font-size="14.00">studio_id</text>
<polygon fill="black" stroke="black" points="163.5,-209 163.5,-209 240.5,-209 240.5,-209 163.5,-209"/>
</g>
<!-- roles -->
<g id="node4" class="node">
<title>roles</title>
<polygon fill="none" stroke="black" points="159.5,-78 83.5,-78 83.5,0 159.5,0 159.5,-78"/>
<text text-anchor="start" x="107.89" y="-59.8" font-family="Times,serif" font-weight="bold" font-size="14.00">roles</text>
<text text-anchor="start" x="116.06" y="-39.8" font-family="Times,serif" font-weight="bold" font-size="14.00">id</text>
<text text-anchor="start" x="95.06" y="-25.8" font-family="Times,serif" font-style="italic" font-size="14.00">movie_id</text>
<text text-anchor="start" x="98.57" y="-11.8" font-family="Times,serif" font-style="italic" font-size="14.00">actor_id</text>
<polygon fill="black" stroke="black" points="91.5,-53 91.5,-53 151.5,-53 151.5,-53 91.5,-53"/>
</g>
<!-- movies&#45;&gt;roles -->
<g id="edge2" class="edge">
<title>movies&#45;&gt;roles</title>
<path fill="none" stroke="black" d="M165.94,-113.89C160.56,-104.93 155.06,-95.79 149.85,-87.13"/>
<polygon fill="black" stroke="black" points="149.7,-86.88 148.4,-75.99 147.12,-82.59 144.54,-78.31 144.54,-78.31 144.54,-78.31 147.12,-82.59 140.69,-80.63 149.7,-86.88 149.7,-86.88"/>
</g>
<!-- studios -->
<g id="node2" class="node">
<title>studios</title>
<polygon fill="none" stroke="black" points="245,-348 158,-348 158,-270 245,-270 245,-348"/>
<text text-anchor="start" x="182.16" y="-329.8" font-family="Times,serif" font-weight="bold" font-size="14.00">studios</text>
<text text-anchor="start" x="196.56" y="-309.8" font-family="Times,serif" font-weight="bold" font-size="14.00">id</text>
<text text-anchor="start" x="186.84" y="-295.8" font-family="Times,serif" font-size="14.00">name</text>
<text text-anchor="start" x="170.12" y="-281.8" font-family="Times,serif" font-size="14.00">founded_in</text>
<polygon fill="black" stroke="black" points="166.5,-323 166.5,-323 237.5,-323 237.5,-323 166.5,-323"/>
</g>
<!-- studios&#45;&gt;movies -->
<g id="edge1" class="edge">
<title>studios&#45;&gt;movies</title>
<path fill="none" stroke="black" d="M201.5,-269.89C201.5,-261.89 201.5,-253.21 201.5,-244.47"/>
<polygon fill="black" stroke="black" points="201.5,-244.21 206,-234.21 201.5,-239.21 201.5,-234.21 201.5,-234.21 201.5,-234.21 201.5,-239.21 197,-234.21 201.5,-244.21 201.5,-244.21"/>
</g>
<!-- actors -->
<g id="node3" class="node">
<title>actors</title>
<polygon fill="none" stroke="black" points="83,-220 0,-220 0,-128 83,-128 83,-220"/>
<text text-anchor="start" x="25.29" y="-201.8" font-family="Times,serif" font-weight="bold" font-size="14.00">actors</text>
<text text-anchor="start" x="36.56" y="-181.8" font-family="Times,serif" font-weight="bold" font-size="14.00">id</text>
<text text-anchor="start" x="12.45" y="-167.8" font-family="Times,serif" font-size="14.00">first_name</text>
<text text-anchor="start" x="13.62" y="-153.8" font-family="Times,serif" font-size="14.00">last_name</text>
<text text-anchor="start" x="13.62" y="-139.8" font-family="Times,serif" font-size="14.00">birth_date</text>
<polygon fill="black" stroke="black" points="8.5,-195 8.5,-195 75.5,-195 75.5,-195 8.5,-195"/>
</g>
<!-- actors&#45;&gt;roles -->
<g id="edge3" class="edge">
<title>actors&#45;&gt;roles</title>
<path fill="none" stroke="black" d="M68.58,-127.97C76.54,-114.74 85.26,-100.24 93.29,-86.9"/>
<polygon fill="black" stroke="black" points="93.29,-86.89 102.3,-80.64 95.87,-82.61 98.45,-78.32 98.45,-78.32 98.45,-78.32 95.87,-82.61 94.59,-76 93.29,-86.89 93.29,-86.89"/>
</g>
</g>
</svg>
